<?xml version="1.0" encoding="utf-8"?>
<!-- Generator: Adobe Illustrator 24.1.3, SVG Export Plug-In . SVG Version: 6.00 Build 0)  -->
<svg version="1.1" id="Calque_1" xmlns="http://www.w3.org/2000/svg" xmlns:xlink="http://www.w3.org/1999/xlink" x="0px" y="0px"
	 viewBox="0 0 498.7 50.2" style="enable-background:new 0 0 498.7 50.2;" xml:space="preserve">
<style type="text/css">
	.st0{fill:#39B54A;}
	.st1{fill:#ED1E79;}
	.st2{fill:#FFFF00;}
	.st3{fill:#FF0000;}
	.st4{fill:none;}
	.st5{fill:#F7931E;}
	.st6{fill:#2AB1AC;}
	.st7{fill:#29ABE2;}
	.st8{fill:#662D91;}
</style>
<polygon class="st0" points="177.8,13.6 177.6,15.4 175.9,15.2 176.2,13.4 "/>
<polygon class="st1" points="286.3,13.2 287.7,14.2 288.7,12.8 287.9,12.4 "/>
<g>
	<path class="st2" d="M257.6,12.3c1-1.6,2.1-3,3.4-4.4c1.2-1.4,2.7-2.6,4.3-3.6c1.6-0.9,3.5-1.7,5.4-1.5c0.9,0.1,1.9,0.4,2.7,0.9
		c0.8,0.5,1.5,1.1,2.1,1.8c-1.4-1.2-3-2.1-4.8-2.1c-1.8,0-3.5,0.6-5,1.5c-1.5,0.9-2.9,2.1-4.2,3.3C260.1,9.6,258.8,10.9,257.6,12.3z
		"/>
</g>
<g>
	<path class="st2" d="M257.6,29.2c1.4-0.3,2.8-0.5,4.2-0.6c1.4-0.1,2.9,0,4.3,0.2c1.4,0.3,2.9,0.8,3.9,2.1c0.3,0.3,0.4,0.7,0.5,1
		c0.1,0.4,0.1,0.7,0.1,1.1c-0.1,0.4-0.1,0.7-0.2,1.1c-0.1,0.3-0.2,0.7-0.4,1c0.3-1.4,0.3-2.9-0.6-3.9c-0.9-1-2.2-1.4-3.6-1.7
		c-1.3-0.3-2.7-0.3-4.1-0.4C260.5,29.2,259,29.2,257.6,29.2z"/>
</g>
<g>
	<path class="st2" d="M243.7,18.7c-1.2-1.9-2.5-3.6-4.3-4.9c-1.7-1.3-3.8-1.9-6-2c-1.1,0-2.1,0.1-3.2,0.4c-1,0.3-2,0.7-3,1.2
		c-1.9,1-3.6,2.4-5.1,4.1c1.2-1.8,2.9-3.4,4.8-4.6c1.9-1.1,4.2-1.8,6.5-1.8c2.3,0.1,4.6,0.8,6.3,2.3
		C241.5,14.8,242.8,16.7,243.7,18.7z"/>
</g>
<g>
	<path class="st3" d="M241.3,31c-0.8-0.6-1.7-1.1-2.6-1.6c-0.9-0.5-1.8-0.8-2.8-1.1c-1-0.3-2-0.3-2.9-0.3c-1,0-2,0.3-3,0.6
		c0.9-0.5,1.9-1,2.9-1.2c1.1-0.2,2.2-0.1,3.2,0.1C238.2,28.1,240,29.3,241.3,31z"/>
</g>
<g>
	<path class="st3" d="M253,25.6c0.7-1.3,1.7-2.4,2.8-3.3c0.6-0.4,1.3-0.8,2.1-0.9c0.4,0,0.8,0,1.2,0.3c0.3,0.2,0.5,0.6,0.6,0.9
		c-0.5-0.6-1.1-0.8-1.7-0.6c-0.6,0.2-1.2,0.6-1.7,1C255.2,23.7,254.1,24.7,253,25.6z"/>
</g>
<g>
	<path class="st3" d="M247.4,15c-0.5-1.2-1.1-2.4-1.6-3.6c-0.6-1.2-1.2-2.3-1.9-3.4c-0.7-1.1-1.5-2.1-2.6-2.6
		c-1.1-0.5-2.4,0.1-3.4,1c0.4-0.5,0.9-1,1.5-1.4c0.6-0.3,1.4-0.4,2.1-0.2c1.4,0.5,2.3,1.6,3.1,2.7c0.7,1.1,1.3,2.3,1.8,3.6
		C246.7,12.4,247.1,13.7,247.4,15z"/>
</g>
<g>
	<path class="st2" d="M315,9.8c0.9-1.2,2-2.4,3.2-3.4c1.2-1,2.5-2,3.9-2.6c1.4-0.6,3.1-1,4.7-0.6c1.6,0.3,2.9,1.3,3.9,2.5
		c-1.2-1-2.5-1.9-4-2.1c-1.5-0.3-3,0.1-4.4,0.7c-1.4,0.6-2.7,1.5-3.9,2.5C317.3,7.6,316.1,8.7,315,9.8z"/>
</g>
<g>
	<path class="st2" d="M319.8,29c0.8,0,1.7,0.1,2.5,0.3c0.8,0.2,1.6,0.5,2.3,1.1c0.7,0.5,1.2,1.3,1.3,2.2c0.1,0.9-0.1,1.7-0.4,2.5
		c0.2-0.8,0.3-1.7,0.2-2.5c-0.1-0.8-0.6-1.6-1.2-2.1c-0.6-0.5-1.4-0.8-2.2-1.1C321.5,29.3,320.7,29.1,319.8,29z"/>
</g>
<g>
	<path class="st2" d="M297,15.6c-1.3-1.4-2.8-2.6-4.5-3.2c-0.9-0.3-1.8-0.5-2.7-0.6c-0.9-0.1-1.9-0.1-2.8,0.1
		c-1.8,0.2-3.6,1-5.2,1.9c-1.6,1-3,2.3-4.2,3.7c1.1-1.6,2.4-2.9,4-4c1.6-1.1,3.4-1.8,5.3-2.1c1.9-0.3,3.9-0.1,5.7,0.7
		C294.5,12.7,295.9,14,297,15.6z"/>
</g>
<g>
	<path class="st3" d="M290.8,27.8c-0.9,0-1.9,0-2.8,0.2c-0.9,0.2-1.8,0.5-2.6,0.8c-1.6,0.9-2.9,2.3-3.5,4.1c0.2-0.9,0.6-1.8,1.2-2.6
		c0.6-0.8,1.3-1.4,2.1-1.9C286.9,27.5,289,27.2,290.8,27.8z"/>
</g>
<g>
	<path class="st3" d="M308.4,25.6c0.6-0.9,1.3-1.7,2.1-2.5c0.8-0.7,1.7-1.5,2.9-1.7c0.6-0.1,1.3,0.2,1.7,0.7c0.4,0.5,0.5,1,0.7,1.6
		c0.3,1.1,0.3,2.2,0,3.3c0-1.1-0.1-2.2-0.4-3.2c-0.2-0.5-0.3-1-0.7-1.4c-0.3-0.4-0.7-0.5-1.2-0.5c-1,0.2-1.9,0.8-2.7,1.5
		C310,24,309.2,24.8,308.4,25.6z"/>
</g>
<g>
	<path class="st3" d="M301.8,12.3c-0.5-1-1-1.9-1.5-2.9c-0.5-0.9-1.1-1.8-1.8-2.6C297.8,6,297,5.3,296,5.2c-1-0.1-2,0.5-2.8,1.2
		c0.6-0.8,1.6-1.7,2.8-1.6c1.2,0.1,2.2,0.9,2.9,1.7c0.7,0.8,1.3,1.8,1.8,2.8C301.1,10.3,301.5,11.3,301.8,12.3z"/>
</g>
<g>
	<path class="st2" d="M378.6,3.6c0.6-0.3,1.3-0.4,2-0.5c0.7-0.1,1.4,0,2.1,0.2c0.7,0.2,1.3,0.5,1.9,0.9c0.6,0.4,1.1,0.9,1.5,1.4
		c-1-0.9-2.2-1.7-3.5-2.1C381.4,3.1,380,3.2,378.6,3.6z"/>
</g>
<g>
	<path class="st2" d="M380.5,31c0.3,0.2,0.5,0.6,0.7,0.9c0.2,0.3,0.2,0.7,0.3,1.1c0,0.8-0.1,1.5-0.5,2.2c0.1-0.7,0.3-1.4,0.2-2.1
		C381.2,32.3,380.9,31.6,380.5,31z"/>
</g>
<g>
	<path class="st2" d="M342,11.6c-1.8,0.4-3.5,1.2-5,2.2c-1.5,1-2.8,2.3-4,3.6c1-1.5,2.4-2.8,3.9-3.9C338.4,12.6,340.2,11.8,342,11.6
		z"/>
</g>
<g>
	<path class="st3" d="M340.8,28.6c-0.4,0.3-0.7,0.6-1.1,0.9c-0.3,0.3-0.7,0.6-0.9,1c-0.3,0.3-0.6,0.7-0.8,1.1
		c-0.2,0.4-0.4,0.8-0.6,1.3c0.1-0.5,0.2-0.9,0.4-1.4c0.2-0.4,0.5-0.8,0.8-1.2C339.2,29.6,339.9,29,340.8,28.6z"/>
</g>
<g>
	<path class="st3" d="M370.5,22.5c0.4,0.6,0.6,1.4,0.7,2.1c0,0.4,0.1,0.8,0.1,1.1c0,0.4-0.1,0.7-0.2,1.1c0-0.7,0-1.5-0.1-2.2
		c0-0.4-0.1-0.7-0.2-1.1C370.8,23.3,370.7,22.9,370.5,22.5z"/>
</g>
<g>
	<path class="st3" d="M353.1,5.7c-0.7-0.4-1.6-0.7-2.4-0.6c-0.8,0.2-1.5,0.7-2.1,1.3c0.5-0.7,1.2-1.3,2.1-1.5
		c0.4-0.1,0.9-0.1,1.3,0.1C352.5,5.2,352.8,5.4,353.1,5.7z"/>
</g>
<g>
	<path class="st2" d="M438.8,3.6c1.1,0.3,2.1,1,2.8,2c-0.5-0.3-0.9-0.7-1.4-1C439.8,4.2,439.3,3.9,438.8,3.6z"/>
</g>
<g>
	<path class="st2" d="M392.8,13.4c-0.8,0.6-1.6,1.2-2.3,1.9c-0.7,0.7-1.4,1.4-2.1,2.1c0.5-0.9,1.2-1.6,1.9-2.3
		C391.1,14.4,391.9,13.8,392.8,13.4z"/>
</g>
<g>
	<path class="st3" d="M394,30.5c-0.2,0.4-0.4,0.8-0.6,1.2c-0.2,0.4-0.4,0.8-0.6,1.2C392.8,32,393.3,31.1,394,30.5z"/>
</g>
<g>
	<path class="st3" d="M426.6,24.8c0.1,0.3,0.2,0.7,0.2,1c0,0.3,0,0.7-0.2,1c-0.1-0.4,0-0.7-0.1-1C426.5,25.5,426.5,25.2,426.6,24.8z
		"/>
</g>
<g>
	<path class="st2" d="M200.7,14.4c0.6-1.2,1.4-2.4,2.2-3.5c0.8-1.1,1.7-2.2,2.7-3.2c1-1,2-1.9,3.2-2.6c1.2-0.7,2.5-1.4,3.8-1.6
		c-1.3,0.6-2.4,1.3-3.5,2.1c-1.1,0.8-2.1,1.7-3,2.7c-1,0.9-1.9,2-2.8,3C202.5,12.3,201.6,13.4,200.7,14.4z"/>
</g>
<g>
	<path class="st2" d="M197.3,30c1.9-0.7,4-1.1,6-1.3c2-0.2,4.1-0.2,6.1,0.3c-2.1,0.1-4.1,0.2-6.1,0.4
		C201.4,29.6,199.3,29.9,197.3,30z"/>
</g>
<g>
	<path class="st2" d="M189.5,21.3c-0.9-1.6-1.9-3.2-2.9-4.7c-0.5-0.7-1.1-1.4-1.7-2.1c-0.6-0.7-1.3-1.3-2.1-1.9
		c0.9,0.3,1.7,0.8,2.5,1.4c0.7,0.6,1.4,1.3,1.9,2.1C188.2,17.7,189.1,19.4,189.5,21.3z"/>
</g>
<g>
	<path class="st3" d="M185.9,31c-0.9-0.5-1.8-1-2.6-1.5c-0.9-0.5-1.7-1-2.6-1.5c1.1,0,2.1,0.3,3,0.9C184.6,29.3,185.4,30.1,185.9,31
		z"/>
</g>
<g>
	<path class="st4" d="M204.3,22.5"/>
</g>
<g>
	<path class="st4" d="M197.6,25.6"/>
</g>
<g>
	<path class="st3" d="M195,15c-0.6-0.8-0.9-1.7-1.3-2.6c-0.3-0.9-0.7-1.8-0.8-2.7c0.7,0.7,1.1,1.6,1.5,2.5C194.7,13.1,195,14,195,15
		z"/>
</g>
<g>
	<path class="st5" d="M178.9,14.6c-1.5-1.1-3.2-2.2-5-2.3c-0.9-0.1-1.8,0.1-2.7,0.4c-0.9,0.3-1.7,0.9-2.4,1.5
		c0.6-0.7,1.4-1.4,2.3-1.8c0.9-0.4,1.9-0.6,2.9-0.5c1,0.1,1.9,0.5,2.8,1C177.5,13.3,178.2,13.9,178.9,14.6z"/>
</g>
<g>
	<path class="st5" d="M209.3,16.8c0.9-0.4,2.1-0.4,3,0.2c1,0.5,1.5,1.6,1.6,2.6c-0.3-0.4-0.5-0.9-0.8-1.2c-0.3-0.4-0.7-0.7-1.1-0.9
		c-0.4-0.2-0.9-0.4-1.3-0.5C210.3,16.9,209.8,16.9,209.3,16.8z"/>
</g>
<g>
	<path class="st2" d="M145.3,14.4c0.7-1.4,1.6-2.7,2.6-3.9c1-1.2,2.1-2.3,3.4-3.3L149.8,9l-1.5,1.8L145.3,14.4z"/>
</g>
<g>
	<path class="st2" d="M141.9,30c1-0.3,2-0.5,3-0.7c1-0.1,2-0.3,3.1-0.3c-1,0.2-2,0.3-3,0.5C143.9,29.7,142.9,29.9,141.9,30z"/>
</g>
<g>
	<path class="st2" d="M134.1,21.3c-0.4-0.8-0.8-1.7-1.2-2.5c-0.4-0.8-0.9-1.6-1.3-2.4c0.6,0.7,1.1,1.5,1.6,2.3
		C133.5,19.5,133.8,20.4,134.1,21.3z"/>
</g>
<g>
	<path class="st4" d="M148.9,22.5"/>
</g>
<g>
	<path class="st4" d="M142.2,25.6"/>
</g>
<g>
	<path class="st5" d="M130.7,25.1c-1-1.8-2.1-3.5-3.2-5.1c-1.2-1.6-2.4-3.2-3.8-4.6c-1.4-1.4-3.1-2.6-5-3c-0.9-0.2-1.9-0.1-2.9,0.2
		c-0.9,0.3-1.8,0.9-2.6,1.5c0.7-0.8,1.5-1.4,2.4-1.9c0.9-0.4,2-0.6,3.1-0.5c2.1,0.3,3.9,1.6,5.4,3c1.5,1.5,2.7,3.1,3.8,4.8
		C129,21.4,130,23.2,130.7,25.1z"/>
</g>
<g>
	<path class="st5" d="M145.3,21.3c0.9-0.9,2-1.7,3.1-2.5c1.1-0.7,2.3-1.4,3.6-1.8c1.3-0.4,2.7-0.8,4-0.4c0.7,0.2,1.3,0.6,1.7,1.1
		c0.4,0.6,0.7,1.2,0.8,1.8c-0.5-1.2-1.4-2.2-2.7-2.4c-1.2-0.2-2.5,0.1-3.7,0.5c-1.2,0.4-2.4,1-3.5,1.6
		C147.6,19.9,146.4,20.6,145.3,21.3z"/>
</g>
<g>
	<path class="st2" d="M89.9,14.4c0.3-0.7,0.8-1.4,1.3-2.1c0.5-0.6,1-1.3,1.6-1.8c-0.4,0.7-0.9,1.3-1.4,2
		C90.9,13.2,90.4,13.8,89.9,14.4z"/>
</g>
<g>
	<path class="st4" d="M93.5,22.5"/>
</g>
<g>
	<path class="st4" d="M83.8,25.6"/>
</g>
<g>
	<path class="st5" d="M75.3,25.1c-0.9-1.6-1.9-3.1-2.8-4.6c-0.5-0.8-1-1.5-1.5-2.3c-0.5-0.8-1-1.5-1.6-2.2c1.4,1.2,2.5,2.7,3.4,4.2
		C73.9,21.8,74.7,23.4,75.3,25.1z"/>
</g>
<g>
	<path class="st5" d="M89.9,21.3c0.8-0.9,1.7-1.6,2.6-2.2c1-0.6,2-1.1,3.1-1.4c-0.5,0.3-1,0.6-1.4,0.9l-1.4,0.9
		C91.9,20.1,90.9,20.7,89.9,21.3z"/>
</g>
<g>
	<path class="st5" d="M226.7,12.3c-0.5,0.3-0.9,0.5-1.3,0.9c-0.4,0.3-0.8,0.6-1.3,0.9c0.3-0.4,0.7-0.8,1.2-1.1
		C225.7,12.6,226.2,12.4,226.7,12.3z"/>
</g>
<g>
	<path class="st5" d="M267.6,17.1c1,0.3,1.7,1.4,1.8,2.4c-0.3-0.5-0.5-0.9-0.8-1.3C268.3,17.8,268,17.4,267.6,17.1z"/>
</g>
<g>
	<path class="st4" d="M95.4,22.1"/>
</g>
<g>
	<path class="st4" d="M81.6,23.3"/>
</g>
<polygon class="st6" points="63.9,23.3 64.6,23.9 65.5,23.6 65,23.3 "/>
<polygon class="st0" points="72.5,13.6 72.2,14.2 71.6,13.9 72,13.4 "/>
<polygon class="st7" points="92.8,8.8 92.2,9.2 91.9,8.6 92.5,8.3 "/>
<polygon class="st6" points="78.4,7.7 77.9,7.9 77.6,7.4 78.1,7.3 "/>
<polygon class="st6" points="94.3,21.3 94,21.7 94.6,21.7 "/>
<polygon class="st0" points="93.1,28.1 93.5,27.7 94,27.9 93.6,28.3 "/>
<g>
	<path class="st4" d="M150.8,22.1"/>
</g>
<g>
	<path class="st4" d="M137,23.3"/>
</g>
<polygon class="st6" points="115,22.6 115.9,23.1 116.8,22.6 116.2,22.4 "/>
<polygon class="st0" points="125.3,12.2 124.8,13.1 124,12.6 124.5,11.8 "/>
<polygon class="st7" points="151.9,6.4 150.9,6.8 150.5,5.9 151.5,5.6 "/>
<polygon class="st6" points="132.4,6.2 131.6,6.5 131,5.7 131.8,5.5 "/>
<polygon class="st6" points="152.9,22.1 152.3,23.3 153.6,23.3 "/>
<polygon class="st0" points="151.7,26.6 152.6,26 153.6,26.7 152.5,27.2 "/>
<polygon class="st8" points="124.6,20 124.4,20.6 125,20.6 "/>
<polygon class="st8" points="146.1,33.4 145.9,34.3 147.3,33.5 "/>
<g>
	<path class="st4" d="M206.3,22.1"/>
</g>
<g>
	<path class="st4" d="M192.4,23.3"/>
</g>
<polygon class="st6" points="166.4,24.3 167.3,24.4 167.8,23.6 167.2,23.7 "/>
<polygon class="st7" points="213.2,3 211.4,2.9 211.5,1.2 213.3,1.4 "/>
<polygon class="st6" points="184.4,6 183.5,6.9 182.2,6.3 183.1,5.4 "/>
<polygon class="st6" points="212.7,20.5 213.1,22.3 214.5,21.1 "/>
<polygon class="st0" points="211.6,25.4 212.9,25.3 213.5,26.6 212,26.5 "/>
<polygon class="st8" points="177.8,19.8 177.6,20.4 178.5,20.1 "/>
<polygon class="st8" points="206.3,32.2 205.3,33.1 207.5,33.3 "/>
<polygon class="st1" points="200.7,7.8 200.2,8.5 201.2,8.9 "/>
<polygon class="st1" points="183.6,12.5 184,13.4 185,12.9 184.6,12.5 "/>
<polygon class="st1" points="204.8,27.8 204.1,28.6 205.3,28.6 "/>
<g>
	<path class="st4" d="M261.7,22.1"/>
</g>
<g>
	<path class="st4" d="M253.7,25.7"/>
</g>
<polygon class="st0" points="230.1,16.6 230.3,17.7 229.2,17.9 229.1,16.8 "/>
<polygon class="st7" points="272.3,4.9 271.1,4.5 271.4,3.4 272.6,3.8 "/>
<polygon class="st6" points="232.7,9.3 232.4,10.2 231.4,10.2 231.7,9.3 "/>
<polygon class="st6" points="270.8,23.3 271.6,24.4 272.1,23.1 "/>
<polygon class="st0" points="268.8,28.2 269.8,28.6 269.7,29.8 268.7,29.2 "/>
<polygon class="st8" points="227.6,18.8 227.1,19.6 228.5,19.5 "/>
<polygon class="st8" points="266.6,31.3 264.7,31.4 267.1,33.4 "/>
<polygon class="st1" points="259.8,5.9 258.8,6.3 259.6,7.5 "/>
<polygon class="st1" points="234.5,13.7 235.4,14.8 236.5,13.9 235.9,13.4 "/>
<polygon class="st1" points="263.3,26 261.3,26.4 263,27.8 "/>
<g>
	<path class="st4" d="M317.2,22.1"/>
</g>
<g>
	<path class="st4" d="M303.3,23.3"/>
</g>
<polygon class="st0" points="282.3,18.5 282.5,19.3 281.8,19.4 281.7,18.7 "/>
<polygon class="st7" points="329.5,6.8 328.9,6.5 329.1,6 329.7,6.2 "/>
<polygon class="st6" points="284.8,12.2 284.9,12.8 284.3,13.1 284.2,12.5 "/>
<polygon class="st6" points="329.1,25.7 328.1,25.7 328.6,26.6 "/>
<polygon class="st0" points="325.2,32.4 325.8,32.8 325.6,33.5 325,33 "/>
<polygon class="st8" points="280.4,21.7 280.2,21.1 279.6,21.9 "/>
<polygon class="st8" points="322.7,36.3 321.5,35.6 322,37.8 "/>
<polygon class="st1" points="319.4,3.8 317.6,3.7 318,5.9 "/>
<polygon class="st1" points="322,28.2 320.6,28.2 321.6,29.4 "/>
<g>
	<path class="st4" d="M372.5,22.1"/>
</g>
<g>
	<path class="st4" d="M364.5,25.7"/>
</g>
<polygon class="st0" points="336.1,20.6 336.2,21.1 335.8,21.2 335.7,20.7 "/>
<polygon class="st0" points="382.9,36.2 383.3,36.7 383,37.3 382.6,36.7 "/>
<polygon class="st8" points="334.4,23.8 333.9,23.3 333.7,24.3 "/>
<polygon class="st8" points="379,41.7 378.4,40.9 378.2,42.6 "/>
<polygon class="st1" points="378.6,5.3 377.7,6.5 379.3,7.3 "/>
<polygon class="st1" points="339.6,15.5 340.5,15.6 340.5,14.6 340,14.7 "/>
<polygon class="st1" points="378.2,31.5 377.5,30.8 377.3,31.8 "/>
<g>
	<path class="st4" d="M427.9,22.1"/>
</g>
<g>
	<path class="st4" d="M419.9,25.7"/>
</g>
<polygon class="st1" points="437.4,9.3 436.6,9.7 437.3,10.6 "/>
<polygon class="st1" points="393.7,19.1 394.1,19.1 394.1,18.7 393.9,18.7 "/>
<polygon class="st1" points="434,35.1 434.3,34.6 433.7,34.7 "/>
</svg>
