<?xml version="1.0" encoding="utf-8"?>
<!-- Generator: Adobe Illustrator 24.1.3, SVG Export Plug-In . SVG Version: 6.00 Build 0)  -->
<svg version="1.1" xmlns="http://www.w3.org/2000/svg" xmlns:xlink="http://www.w3.org/1999/xlink" x="0px" y="0px"
	 viewBox="0 0 443.2 50.2" style="enable-background:new 0 0 443.2 50.2;" xml:space="preserve">
<style type="text/css">
	.st0{fill:#B3B3B3;}
	.st1{fill:#FFFFFF;}
</style>
<g id="Calque_2">
</g>
<g id="Calque_1">
	<path class="st0" d="M352.2,25.4c0.2,0,0.5,0,0.7,0.1c2.3-2.8,4.2-5.1,5.3-6.5l-22.5-2.9C335.8,16.1,342.3,24.2,352.2,25.4z"/>
	<path class="st0" d="M299,23.7c2.1-2.6,3.8-4.6,4.5-5.6L288.8,3.2c0,0-1.2,11,5.4,17.7C295.5,22.2,297.3,23.2,299,23.7z"/>
	<path class="st0" d="M244.2,23c2.5-3.1,4.3-5.2,4.4-5.4L237.8,0.2c0,0-3.6,10.5,1.3,18.4C240.3,20.6,242.5,22.1,244.2,23z"/>
	<path class="st0" d="M188.2,23.7c2.1-2.6,3.8-4.6,4.5-5.6L178,3.2c0,0-1.2,11,5.4,17.7C184.7,22.2,186.5,23.2,188.2,23.7z"/>
	<path class="st0" d="M130.8,25.4c0.2,0,0.3,0,0.5,0c2.3-2.8,4.2-5.1,5.3-6.5l-22.3-2.9C114.4,16.1,120.9,24.2,130.8,25.4z"/>
	<path class="st1" d="M80.8,19.9L57.4,35.3c0,0,11.3,2.1,20.6-4c2.9-1.9,5.3-5.3,6-7.1C85.6,20.3,83.3,18.2,80.8,19.9z"/>
	<path class="st1" d="M413.2,19.9l-23.4,15.4c0,0,11.3,2.1,20.6-4c2.9-1.9,5.3-5.3,6-7.1C418,20.3,415.7,18.2,413.2,19.9z"/>
	<path class="st1" d="M139,19.4l-28,0c0,0,8.3,8,19.4,8c3.5,0,7.3-1.6,8.9-2.6C142.8,22.3,142.1,19.4,139,19.4z"/>
	<path class="st1" d="M360.4,19.4l-28,0c0,0,8.3,8,19.4,8c3.5,0,7.3-1.6,8.9-2.6C364.2,22.3,363.5,19.4,360.4,19.4z"/>
	<path class="st1" d="M193.7,19.4L168.6,7.1c0,0,3,12.8,12.9,17.7c3.2,1.6,7.5,1.4,9.5,0.9C195.4,24.5,196.4,20.8,193.7,19.4z"/>
	<path class="st1" d="M304.5,19.4L279.4,7.1c0,0,3,12.8,12.9,17.7c3.2,1.6,7.5,1.4,9.5,0.9C306.2,24.5,307.2,20.8,304.5,19.4z"/>
	<path class="st1" d="M249.7,19.6L229.7,0c0,0-2.4,14.4,5.5,22.1c2.5,2.5,6.9,3.4,9.2,3.4C249.3,25.4,251.9,21.7,249.7,19.6z"/>
</g>
</svg>
