<?xml version="1.0" encoding="utf-8"?>
<!-- Generator: Adobe Illustrator 24.1.3, SVG Export Plug-In . SVG Version: 6.00 Build 0)  -->
<svg version="1.1" xmlns="http://www.w3.org/2000/svg" xmlns:xlink="http://www.w3.org/1999/xlink" x="0px" y="0px"
	 viewBox="0 0 55.3 50.2" style="enable-background:new 0 0 55.3 50.2;" xml:space="preserve">
<style type="text/css">
	.st0{fill:#FFFFFF;}
</style>
<g id="Calque_2">
</g>
<g id="Calque_1">
	<path class="st0" d="M39.3,12.9L36,14.2c0,0-2.4-3.9-6.2-2.1c-3.8,1.8-2.9,5.3-2.9,5.3S0.4,49.8,0.8,50.1
		C1,50.3,13.3,37.7,13.3,37.7h7.2c0,0,0-0.4,0-1.8c7.8,0,10.7-0.9,12.4-3c1.7-2.1,3-4.8,3-7.3s-0.4-4.1-0.4-6s0.4-3.2,0.4-3.2
		L39.3,12.9z M32.5,17.3c-0.8,0-1.4-0.6-1.4-1.4c0-0.8,0.6-1.4,1.4-1.4s1.4,0.6,1.4,1.4C33.9,16.6,33.3,17.3,32.5,17.3z"/>
	<rect x="22.8" y="37.8" class="st0" width="15.9" height="2.8"/>
</g>
</svg>
